<svg xmlns="http://www.w3.org/2000/svg" style="font-size:12px;font-style:normal;font-weight:400;fill:#f8f8ff;fill-opacity:1;stroke:#f8f8ff;stroke-width:1;stroke-linecap:square;stroke-linejoin:miter;stroke-miterlimit:10;stroke-opacity:1;stroke-dasharray:none;stroke-dashoffset:0;font-family:Dialog" viewBox="0 0 146 139">
  <defs>
    <clipPath id="a">
      <path d="M0 0h14v31H0z"/>
    </clipPath>
  </defs>
  <path d="M37.91 11H27v107h10.91M103.09 11H114v107h-10.91" style="fill:none;stroke-width:1.70000005;stroke-linecap:butt" transform="translate(3.2 3.2)"/>
  <g clip-path="url(#a)" style="font-size:22px;font-style:italic;stroke:none;font-family:Arial" transform="translate(120.2 96.2)">
    <path d="m.73 32 2.39-11.4h1.76l-.42 1.98a9 9 0 0 1 2.15-1.7 4 4 0 0 1 2.04-.55 3 3 0 0 1 2.17.76q.8.75.8 2 0 .65-.29 2L9.88 32H7.94l1.51-7.23q.23-1.05.23-1.56 0-.57-.4-.92-.39-.36-1.13-.36-1.5 0-2.66 1.08-1.16 1.07-1.7 3.68L2.66 32z" style="font-size:22px;font-style:italic;stroke:none;font-family:Arial"/>
  </g>
  <path d="M10 64h28.91M61.31 64H79.8M100.21 64H130M50 53V34.73M50 74.73v18.24" style="font-size:24px;fill:none;stroke-width:1.70000005;stroke-linecap:butt;font-family:Arial" transform="translate(3.2 3.2)"/>
  <g style="font-size:24px;stroke:none;font-family:Arial">
    <path d="m40.69 66.92 2.14-.18q.16 1.28.7 2.12.57.81 1.74 1.33 1.17.5 2.64.5 1.3 0 2.3-.38t1.47-1.05q.5-.69.5-1.48 0-.8-.48-1.4-.46-.61-1.54-1.03a30 30 0 0 0-3.06-.83 16 16 0 0 1-3.32-1.08 5 5 0 0 1-1.84-1.59q-.6-.97-.6-2.14 0-1.3.74-2.43a4.6 4.6 0 0 1 2.16-1.72q1.42-.6 3.15-.59 1.91 0 3.36.62 1.47.6 2.25 1.8.79 1.2.85 2.71l-2.18.17a3.5 3.5 0 0 0-1.2-2.46q-1-.84-2.99-.84-2.05 0-3 .77-.94.75-.94 1.81 0 .93.66 1.53t3.42 1.23q2.79.61 3.81 1.09 1.5.69 2.22 1.75.7 1.05.71 2.44a4.7 4.7 0 0 1-.78 2.6 5 5 0 0 1-2.26 1.88q-1.47.67-3.3.67a10 10 0 0 1-3.92-.68 5.5 5.5 0 0 1-3.41-5.14M57.23 57.69v-2.43h2.11v2.43zm0 14.75V60h2.1v12.44z" style="font-size:24px;stroke:none;font-family:Arial" transform="translate(3.2 3.2)"/>
  </g>
  <path d="M81.79 64.08q0-4.27 2.3-6.69A7.8 7.8 0 0 1 90 54.96q2.38 0 4.3 1.14a7.4 7.4 0 0 1 2.9 3.18q1 2.02 1 4.6 0 2.61-1.05 4.68a7.2 7.2 0 0 1-2.99 3.13A8.6 8.6 0 0 1 90 72.74q-2.43 0-4.34-1.17a7.5 7.5 0 0 1-2.89-3.2 10 10 0 0 1-.98-4.29m2.34.04q0 3.1 1.66 4.9A5.5 5.5 0 0 0 90 70.8q2.56 0 4.22-1.8 1.66-1.81 1.66-5.13a9 9 0 0 0-.71-3.66 5.57 5.57 0 0 0-5.13-3.3q-2.42.02-4.17 1.68-1.73 1.65-1.73 5.53M55.32 26.42l2.27.57a7.7 7.7 0 0 1-2.57 4.28 7 7 0 0 1-4.54 1.47 8 8 0 0 1-4.52-1.13 7 7 0 0 1-2.65-3.28q-.9-2.14-.9-4.6 0-2.7 1.02-4.68A7 7 0 0 1 46.34 16a8.5 8.5 0 0 1 4.18-1.04q2.57 0 4.33 1.31a6.8 6.8 0 0 1 2.45 3.7l-2.24.52a5.3 5.3 0 0 0-1.73-2.73 4.6 4.6 0 0 0-2.86-.85q-1.98 0-3.32.95a5 5 0 0 0-1.86 2.55 10 10 0 0 0-.54 3.3q0 2.18.63 3.82a4.8 4.8 0 0 0 2 2.44q1.35.81 2.91.81 1.91 0 3.24-1.1a5.6 5.6 0 0 0 1.79-3.27M58.6 32.44V15.26h2.27v7.06h8.93v-7.06h2.27v17.18H69.8v-8.1h-8.93v8.1z" style="font-size:24px;stroke:none;font-family:Arial" transform="translate(3.2 3.2)"/>
  <path d="m73.07 33.09 1.48-.2q.25 1.26.86 1.81.6.55 1.5.55 1.03 0 1.75-.72t.72-1.79q0-1.02-.67-1.67-.66-.67-1.69-.67-.4 0-1.04.17l.17-1.3.23.02q.95 0 1.7-.5.75-.48.76-1.51 0-.81-.55-1.35a2 2 0 0 0-1.42-.53q-.86 0-1.44.54-.57.54-.74 1.63l-1.47-.27q.27-1.48 1.23-2.3a3.6 3.6 0 0 1 2.39-.81q.98 0 1.8.42a3 3 0 0 1 1.71 2.7q0 .79-.41 1.42-.42.64-1.24 1.02 1.06.24 1.65 1.02.6.77.6 1.94 0 1.57-1.15 2.67a4 4 0 0 1-2.9 1.1 3.66 3.66 0 0 1-3.82-3.39" style="font-size:16.79999924px;stroke:none;font-family:Arial" transform="translate(3.2 3.2)"/>
  <path d="m55.32 106.42 2.27.57a7.7 7.7 0 0 1-2.57 4.28 7 7 0 0 1-4.54 1.47 8 8 0 0 1-4.52-1.13 7 7 0 0 1-2.65-3.28q-.9-2.14-.9-4.6 0-2.7 1.02-4.68A7 7 0 0 1 46.34 96a8.5 8.5 0 0 1 4.18-1.04q2.57 0 4.33 1.31a6.8 6.8 0 0 1 2.45 3.7l-2.24.52a5.3 5.3 0 0 0-1.73-2.73 4.6 4.6 0 0 0-2.86-.85q-1.98 0-3.32.95a5 5 0 0 0-1.86 2.55 10 10 0 0 0-.54 3.3q0 2.18.63 3.82a4.8 4.8 0 0 0 2 2.44q1.35.81 2.91.81 1.91 0 3.24-1.1a5.6 5.6 0 0 0 1.79-3.27M58.6 112.44V95.26h2.27v7.06h8.93v-7.06h2.27v17.18H69.8v-8.1h-8.93v8.1z" style="font-size:24px;stroke:none;font-family:Arial" transform="translate(3.2 3.2)"/>
  <path d="m73.07 113.09 1.48-.2q.25 1.26.86 1.81.6.55 1.5.55 1.03 0 1.75-.72t.72-1.79q0-1.02-.67-1.67-.66-.66-1.69-.67-.4 0-1.04.17l.17-1.3.23.02q.95 0 1.7-.5.75-.48.76-1.51 0-.81-.55-1.35a2 2 0 0 0-1.42-.53q-.86 0-1.44.54-.57.54-.74 1.63l-1.47-.27q.27-1.48 1.23-2.3a3.6 3.6 0 0 1 2.39-.81q.98 0 1.8.42a3 3 0 0 1 1.71 2.7q0 .79-.41 1.42-.42.64-1.24 1.02 1.06.24 1.65 1.02.6.78.6 1.94 0 1.57-1.15 2.67a4 4 0 0 1-2.9 1.1 3.66 3.66 0 0 1-3.82-3.39" style="font-size:16.79999924px;stroke:none;font-family:Arial" transform="translate(3.2 3.2)"/>
</svg>
